<?xml version="1.0" encoding="utf-8"?>
<!-- Generator: Adobe Illustrator 19.2.0, SVG Export Plug-In . SVG Version: 6.00 Build 0)  -->
<svg version="1.1" id="Capa_1" xmlns="http://www.w3.org/2000/svg" xmlns:xlink="http://www.w3.org/1999/xlink" x="0px" y="0px"
	 viewBox="0 0 800 800" style="enable-background:new 0 0 800 800;" xml:space="preserve">
<style type="text/css">
	.st0{fill:#FFFFFF;}
</style>
<g>
	<path class="st0" d="M475.7,400.4l149.5-149.6c12.5-12.5,12.5-33,0-45.7l-30.4-30.4c-12.5-12.5-33-12.5-45.7,0L399.6,324.3
		L250.9,175.6c-12.5-12.5-33-12.5-45.7,0l-30.4,30.4c-12.5,12.5-12.5,33,0,45.7l148.6,148.6L175,548.8c-12.5,12.5-12.5,33,0,45.7
		l30.4,30.4c12.5,12.5,33,12.5,45.7,0l148.5-148.4l148.8,148.8c12.5,12.5,33,12.5,45.7,0l30.4-30.4c12.5-12.5,12.5-33,0-45.7
		L475.7,400.4z"/>
</g>
</svg>
